<?xml version="1.0" encoding="UTF-8"?>
<svg version="1.1" xmlns="http://www.w3.org/2000/svg" width="192" height="192">
<path d="M0 0 C63.36 0 126.72 0 192 0 C192 63.36 192 126.72 192 192 C128.64 192 65.28 192 0 192 C0 128.64 0 65.28 0 0 Z " fill="#FDFEFD" transform="translate(0,0)"/>
<path d="M0 0 C2.98219643 1.17961469 5.86594438 2.37949388 8.6953125 3.890625 C9.74924194 4.45003784 9.74924194 4.45003784 10.82446289 5.02075195 C11.58364014 5.42640381 12.34281738 5.83205566 13.125 6.25 C14.81338534 7.14531758 16.50221499 8.03979761 18.19140625 8.93359375 C19.11195801 9.42069824 20.03250977 9.90780273 20.98095703 10.40966797 C26.07258038 13.09176683 31.17987291 15.74367475 36.28875732 18.3927002 C38.02050468 19.29072272 39.75171421 20.18978213 41.48291016 21.08886719 C43.64136814 22.20783121 45.80209 23.32244188 47.96533203 24.43212891 C49.94997374 25.45750051 51.92547569 26.50081072 53.89013672 27.56396484 C54.77072754 28.03141113 55.65131836 28.49885742 56.55859375 28.98046875 C57.32357178 29.39578857 58.0885498 29.8111084 58.87670898 30.23901367 C62.42316572 31.51006181 64.56091645 30.20191869 67.87109375 28.6796875 C69.63646484 27.78636719 69.63646484 27.78636719 71.4375 26.875 C72.10128662 26.53952148 72.76507324 26.20404297 73.44897461 25.85839844 C75.96969292 24.57941736 78.485204 23.29058951 81 22 C82.14629883 21.41186523 83.29259766 20.82373047 84.47363281 20.21777344 C88.33881606 18.23282917 92.20103651 16.24216891 96.0625 14.25 C97.01610916 13.75859528 97.01610916 13.75859528 97.98898315 13.25726318 C106.17683344 9.06773849 106.17683344 9.06773849 114.18359375 4.546875 C117 3 117 3 120 3 C120.21692984 5.05782056 120.37163893 7.12226213 120.5 9.1875 C120.5928125 10.33605469 120.685625 11.48460938 120.78125 12.66796875 C120 16 120 16 116.97265625 18.40625 C115.33058898 19.29989329 113.66975407 20.15922382 112 21 C110.26242432 21.91616089 110.26242432 21.91616089 108.48974609 22.85083008 C104.32381072 25.0405577 100.13174099 27.17763368 95.9375 29.3125 C93.79994537 30.40352578 91.66294779 31.49561765 89.52676392 32.58932495 C88.11435916 33.31164724 86.70076726 34.03165309 85.28598022 34.7492981 C81.75074503 36.55058582 78.25859761 38.39980625 74.80908203 40.36083984 C74.13696182 40.73766403 73.46484161 41.11448822 72.77235413 41.50273132 C71.50661109 42.21634043 70.24816633 42.94312077 68.99900818 43.68537903 C66.22359281 45.24028735 64.27476264 46.0041721 61.07373047 45.95556641 C57.13610195 44.73142995 53.64407646 43.02613314 50.00390625 41.10546875 C49.25213608 40.71684158 48.50036591 40.32821442 47.72581482 39.92781067 C45.33395559 38.68873355 42.94832079 37.43815714 40.5625 36.1875 C38.96326693 35.35799807 37.36366086 34.52921483 35.76367188 33.70117188 C32.81105163 32.16846304 29.85889432 30.63494457 26.91235352 29.09057617 C26.03015892 28.62877205 26.03015892 28.62877205 25.13014221 28.15763855 C22.05896464 26.48858869 19.0348618 24.73420674 16 23 C16 30.59 16 38.18 16 46 C24.31975025 50.47986552 32.6515058 54.88553243 41.13427734 59.04858398 C44.37264765 60.64711728 47.55802167 62.29009367 50.6875 64.09375 C51.821875 64.7434375 52.95625 65.393125 54.125 66.0625 C55.11757812 66.65160156 56.11015625 67.24070312 57.1328125 67.84765625 C60.8193908 69.32931919 62.19092076 69.17792616 66 68 C69.62642336 66.36185174 73.12145649 64.50948394 76.625 62.625 C77.63828369 62.08842773 78.65156738 61.55185547 79.69555664 60.99902344 C87.15815803 57.03216892 94.55887189 52.95502886 101.94995117 48.85693359 C107.32513708 45.8875187 112.746695 43.05955744 118.26000977 40.35644531 C122.99726388 38.02523779 127.68958886 35.61283922 132.37109375 33.171875 C133.02583176 32.83093811 133.68056976 32.49000122 134.35514832 32.13873291 C137.02846103 30.74625892 139.70154023 29.35341936 142.37057495 27.95275879 C144.25305255 26.96499644 146.13801385 25.98212422 148.0234375 25 C149.12606934 24.4225 150.22870117 23.845 151.36474609 23.25 C154 22 154 22 156 22 C156 57.97 156 93.94 156 131 C92.64 131 29.28 131 -36 131 C-36 109.55 -36 88.1 -36 66 C-31.98551097 67.00362226 -28.82879918 68.58718876 -25.25 70.5625 C-19.96276613 73.43363604 -14.64433621 76.2106047 -9.25 78.875 C-2.72977321 82.10619974 3.71882162 85.45846261 10.15039062 88.86230469 C18.49352749 93.27358017 26.87322907 97.61376116 35.26367188 101.93432617 C40.16241176 104.4623809 45.04792924 106.99476862 49.84765625 109.70703125 C50.5344043 110.09165527 51.22115234 110.4762793 51.92871094 110.87255859 C53.65425195 111.8480394 55.36874972 112.84298819 57.08203125 113.83984375 C60.66463262 115.26425152 62.27627253 114.87549885 66 114 C68.91215156 112.78019361 68.91215156 112.78019361 71.82421875 111.19140625 C73.47550781 110.32612305 73.47550781 110.32612305 75.16015625 109.44335938 C76.32417969 108.82267578 77.48820312 108.20199219 78.6875 107.5625 C79.91105082 106.91784575 81.13501369 106.27397297 82.359375 105.63085938 C84.7972607 104.34858303 87.23263742 103.06174936 89.66552734 101.77001953 C93.21060794 99.88820416 96.76150075 98.01772435 100.31396484 96.14990234 C101.76928224 95.38437353 103.22403723 94.61777456 104.67822266 93.85009766 C111.95481498 90.01094297 119.25803803 86.22325547 126.5625 82.4375 C127.16852051 82.12337158 127.77454102 81.80924316 128.39892578 81.4855957 C138.53847948 76.23076026 138.53847948 76.23076026 141 75 C141.33 64.44 141.66 53.88 142 43 C140.02 44.155 138.04 45.31 136 46.5 C130.43200027 49.7030161 124.77513753 52.67264729 119.01293945 55.51025391 C112.50090911 58.72635296 106.04553148 62.04929985 99.59576416 65.38790894 C97.69354032 66.37187551 95.78997435 67.3532067 93.88623047 68.33422852 C88.26222864 71.23737827 82.65729107 74.16497696 77.1171875 77.2265625 C75.81841675 77.9373999 75.81841675 77.9373999 74.4934082 78.66259766 C72.92426816 79.5258847 71.3622429 80.40229312 69.80932617 81.29443359 C66.64526422 83.02768948 64.64192491 83.99916741 60.98828125 84.00390625 C57.11232041 82.70178607 53.68862694 80.92637687 50.125 78.9375 C48.60504462 78.11036379 47.08419017 77.28487784 45.5625 76.4609375 C44.79808594 76.04553711 44.03367187 75.63013672 43.24609375 75.20214844 C39.90810575 73.41559921 36.5207302 71.73591378 33.125 70.0625 C27.00492262 67.0278718 20.92797291 63.91641263 14.875 60.75 C14.08109863 60.33758057 13.28719727 59.92516113 12.46923828 59.50024414 C11.71368652 59.10313232 10.95813477 58.70602051 10.1796875 58.296875 C9.51694824 57.94979492 8.85420898 57.60271484 8.17138672 57.24511719 C7.4548291 56.83422852 6.73827148 56.42333984 6 56 C4.93587891 55.53529297 3.87175781 55.07058594 2.77539062 54.59179688 C-0.43191221 51.59665904 -0.44458147 50.97124675 -0.68115234 46.77246094 C-0.68020328 44.59286807 -0.64635261 42.4131306 -0.5859375 40.234375 C-0.57744781 39.08584045 -0.56895813 37.93730591 -0.56021118 36.75396729 C-0.52662012 33.08502466 -0.45132247 29.41827849 -0.375 25.75 C-0.34490813 23.26305257 -0.31753099 20.77607069 -0.29296875 18.2890625 C-0.22680981 12.19195872 -0.12640172 6.09613626 0 0 Z " fill="#17AC96" transform="translate(36,61)"/>
<path d="M0 0 C4.00149504 1.33383168 6.88067888 2.32613834 10.3984375 4.3203125 C11.19822021 4.76858398 11.99800293 5.21685547 12.82202148 5.67871094 C13.66450439 6.15598633 14.5069873 6.63326172 15.375 7.125 C21.34018063 10.45425281 27.30546912 13.73777431 33.4375 16.75 C49.77031749 24.78640803 65.88221646 33.292711 82 41.75 C82.75192627 42.14364746 83.50385254 42.53729492 84.27856445 42.94287109 C84.97038818 43.30719238 85.66221191 43.67151367 86.375 44.046875 C87.01050781 44.37880859 87.64601563 44.71074219 88.30078125 45.05273438 C90 46 90 46 92.5625 47.828125 C96.09789437 49.52783383 98.23710157 48.94579863 102 48 C104.41968436 46.88600066 106.64171187 45.75793505 108.9375 44.4375 C110.27631062 43.69604811 111.61618746 42.95651875 112.95703125 42.21875 C113.63459473 41.84363281 114.3121582 41.46851563 115.01025391 41.08203125 C118.00776223 39.45197519 121.06373283 37.94290112 124.125 36.4375 C140.46318861 28.3475757 156.61057696 19.85277232 172.75 11.375 C173.82761597 10.80966553 173.82761597 10.80966553 174.92700195 10.23291016 C179.37765 7.88690581 183.76535846 5.44982098 188.12597656 2.93994141 C190 2 190 2 192 2 C192 18.17 192 34.34 192 51 C128.64 51 65.28 51 0 51 C0 34.17 0 17.34 0 0 Z " fill="#FDFEFE" transform="translate(0,141)"/>
<path d="M0 0 C2.98219643 1.17961469 5.86594438 2.37949388 8.6953125 3.890625 C9.39793213 4.26356689 10.10055176 4.63650879 10.82446289 5.02075195 C11.96322876 5.62922974 11.96322876 5.62922974 13.125 6.25 C14.81338534 7.14531758 16.50221499 8.03979761 18.19140625 8.93359375 C19.11195801 9.42069824 20.03250977 9.90780273 20.98095703 10.40966797 C26.07258038 13.09176683 31.17987291 15.74367475 36.28875732 18.3927002 C38.02050468 19.29072272 39.75171421 20.18978213 41.48291016 21.08886719 C43.64136814 22.20783121 45.80209 23.32244188 47.96533203 24.43212891 C49.94997374 25.45750051 51.92547569 26.50081072 53.89013672 27.56396484 C55.21102295 28.26513428 55.21102295 28.26513428 56.55859375 28.98046875 C57.32357178 29.39578857 58.0885498 29.8111084 58.87670898 30.23901367 C62.42316572 31.51006181 64.56091645 30.20191869 67.87109375 28.6796875 C69.63646484 27.78636719 69.63646484 27.78636719 71.4375 26.875 C72.10128662 26.53952148 72.76507324 26.20404297 73.44897461 25.85839844 C75.96969292 24.57941736 78.485204 23.29058951 81 22 C82.14629883 21.41186523 83.29259766 20.82373047 84.47363281 20.21777344 C88.33881606 18.23282917 92.20103651 16.24216891 96.0625 14.25 C96.69823944 13.92239685 97.33397888 13.5947937 97.98898315 13.25726318 C106.17683344 9.06773849 106.17683344 9.06773849 114.18359375 4.546875 C117 3 117 3 120 3 C120.21692984 5.05782056 120.37163893 7.12226213 120.5 9.1875 C120.5928125 10.33605469 120.685625 11.48460938 120.78125 12.66796875 C120 16 120 16 116.97265625 18.40625 C115.33058898 19.29989329 113.66975407 20.15922382 112 21 C110.26242432 21.91616089 110.26242432 21.91616089 108.48974609 22.85083008 C104.32381072 25.0405577 100.13174099 27.17763368 95.9375 29.3125 C93.79994537 30.40352578 91.66294779 31.49561765 89.52676392 32.58932495 C88.11435916 33.31164724 86.70076726 34.03165309 85.28598022 34.7492981 C81.75074503 36.55058582 78.25859761 38.39980625 74.80908203 40.36083984 C74.13696182 40.73766403 73.46484161 41.11448822 72.77235413 41.50273132 C71.50661109 42.21634043 70.24816633 42.94312077 68.99900818 43.68537903 C66.22359281 45.24028735 64.27476264 46.0041721 61.07373047 45.95556641 C57.13610195 44.73142995 53.64407646 43.02613314 50.00390625 41.10546875 C49.25213608 40.71684158 48.50036591 40.32821442 47.72581482 39.92781067 C45.33395559 38.68873355 42.94832079 37.43815714 40.5625 36.1875 C38.96326693 35.35799807 37.36366086 34.52921483 35.76367188 33.70117188 C32.81105163 32.16846304 29.85889432 30.63494457 26.91235352 29.09057617 C26.32422379 28.78270676 25.73609406 28.47483734 25.13014221 28.15763855 C22.05896464 26.48858869 19.0348618 24.73420674 16 23 C16 30.59 16 38.18 16 46 C23.62043049 50.10330873 31.24367872 54.16008552 39 58 C46.75447639 61.83900113 54.38762264 65.88756625 62 70 C62 74.62 62 79.24 62 84 C57.32454283 82.44151428 53.37805169 80.72859748 49.125 78.375 C43.87984971 75.52358339 38.60261586 72.76911175 33.25 70.125 C27.08858818 67.06880493 20.96918518 63.93821614 14.875 60.75 C14.08125977 60.33766113 13.28751953 59.92532227 12.46972656 59.50048828 C11.71401367 59.1032959 10.95830078 58.70610352 10.1796875 58.296875 C9.51694824 57.94979492 8.85420898 57.60271484 8.17138672 57.24511719 C7.4548291 56.83422852 6.73827148 56.42333984 6 56 C4.93587891 55.53529297 3.87175781 55.07058594 2.77539062 54.59179688 C-0.43191221 51.59665904 -0.44458147 50.97124675 -0.68115234 46.77246094 C-0.68020328 44.59286807 -0.64635261 42.4131306 -0.5859375 40.234375 C-0.57744781 39.08584045 -0.56895813 37.93730591 -0.56021118 36.75396729 C-0.52662012 33.08502466 -0.45132247 29.41827849 -0.375 25.75 C-0.34490813 23.26305257 -0.31753099 20.77607069 -0.29296875 18.2890625 C-0.22680981 12.19195872 -0.12640172 6.09613626 0 0 Z " fill="#075A5C" transform="translate(36,61)"/>
<path d="M0 0 C-0.19335938 0.76183594 -0.38671875 1.52367187 -0.5859375 2.30859375 C-1.12796658 4.45792688 -1.65723721 6.6105054 -2.17578125 8.765625 C-3 12 -3 12 -3.85546875 14.484375 C-5.01081506 18.08445962 -5.51858497 19.98389758 -3.75 23.44921875 C-2.10605312 25.87810268 -2.10605312 25.87810268 -0.28515625 28.0546875 C0.35099609 29.01761719 0.35099609 29.01761719 1 30 C-0.17830608 33.53491824 -1.31405533 33.95825072 -4.50915527 35.60122681 C-5.13519653 35.91071259 -5.76123779 36.22019836 -6.40625 36.5390625 C-7.04614868 36.86538666 -7.68604736 37.19171082 -8.34533691 37.52792358 C-10.39231991 38.56960369 -12.44579049 39.59765521 -14.5 40.625 C-16.55274685 41.66216726 -18.60408458 42.70205265 -20.65466309 43.74349976 C-21.93182515 44.39098514 -23.21052154 45.03545428 -24.49084473 45.67666626 C-27.44167436 47.04831424 -27.44167436 47.04831424 -30 49 C-30.12041574 50.46418827 -30.17947467 51.93354924 -30.2109375 53.40234375 C-30.23929688 54.29244141 -30.26765625 55.18253906 -30.296875 56.09960938 C-30.34884539 57.98743396 -30.39315038 59.87548555 -30.4296875 61.76367188 C-30.47609375 63.10075195 -30.47609375 63.10075195 -30.5234375 64.46484375 C-30.54325684 65.285896 -30.56307617 66.10694824 -30.58349609 66.95288086 C-31 69 -31 69 -34 71 C-36.15625 71.265625 -36.15625 71.265625 -38.5 71.25 C-39.66015625 71.25773437 -39.66015625 71.25773437 -40.84375 71.265625 C-43 71 -43 71 -46 69 C-46.39440918 66.88821411 -46.39440918 66.88821411 -46.41992188 64.24658203 C-46.43583374 63.25860626 -46.45174561 62.27063049 -46.46813965 61.25271606 C-46.46834106 60.18189789 -46.46854248 59.11107971 -46.46875 58.0078125 C-46.47636353 56.91032684 -46.48397705 55.81284119 -46.49182129 54.68209839 C-46.50264262 52.35693643 -46.50546719 50.03172578 -46.50097656 47.70654297 C-46.50000572 44.14598445 -46.54157613 40.58758998 -46.5859375 37.02734375 C-46.59114527 34.77083784 -46.59383268 32.51432442 -46.59375 30.2578125 C-46.61014526 29.19104279 -46.62654053 28.12427307 -46.64343262 27.025177 C-46.57435835 19.64462125 -46.57435835 19.64462125 -43.59716797 16.30322266 C-40.76373868 14.88144737 -39.69166576 14.75502939 -36.625 15.25 C-29.4604809 15.55826566 -23.94192976 11.5874174 -17.96533203 8.11669922 C-14.76321011 6.29725752 -11.48174162 4.64497052 -8.1875 3 C-7.04667969 2.4225 -5.90585938 1.845 -4.73046875 1.25 C-2 0 -2 0 0 0 Z " fill="#EF242D" transform="translate(138,3)"/>
<path d="M0 0 C4.01448903 1.00362226 7.17120082 2.58718876 10.75 4.5625 C16.03723387 7.43363604 21.35566379 10.2106047 26.75 12.875 C33.27169694 16.1069283 39.72162294 19.4601696 46.15478516 22.86450195 C53.2908757 26.63728862 60.45573622 30.35319822 67.625 34.0625 C77.7803292 39.31874017 87.90953769 44.6203177 98 50 C98 54.62 98 59.24 98 64 C94.81567089 63.20391772 92.81496548 62.50464212 90.015625 60.99609375 C89.25378906 60.58939453 88.49195312 60.18269531 87.70703125 59.76367188 C86.89621094 59.32603516 86.08539063 58.88839844 85.25 58.4375 C79.2037451 55.21191044 73.14455988 52.0343409 67 49 C60.56423353 45.8113375 54.20091607 42.4992312 47.85302734 39.1394043 C39.52252125 34.73437654 31.15229718 30.40664255 22.77807617 26.08544922 C15.14037576 22.1363105 7.56142274 18.09273707 0 14 C0 9.38 0 4.76 0 0 Z " fill="#075A5C" transform="translate(0,127)"/>
<path d="M0 0 C0.21692984 2.05782056 0.37163893 4.12226213 0.5 6.1875 C0.5928125 7.33605469 0.685625 8.48460938 0.78125 9.66796875 C0 13 0 13 -3.02734375 15.40625 C-4.66941102 16.29989329 -6.33024593 17.15922382 -8 18 C-9.15838379 18.61077393 -10.31676758 19.22154785 -11.51025391 19.85083008 C-15.67618928 22.0405577 -19.86825901 24.17763368 -24.0625 26.3125 C-26.20018319 27.4035914 -28.3373104 28.49575037 -30.47372437 29.58932495 C-31.88477076 30.31111846 -33.29673362 31.03112327 -34.70962524 31.7492981 C-38.26145078 33.56197983 -41.77928946 35.41690217 -45.26123047 37.36083984 C-45.94237411 37.73766403 -46.62351776 38.11448822 -47.32530212 38.50273132 C-48.61499784 39.21981988 -49.89921617 39.94688095 -51.17677307 40.68537903 C-55.46903167 43.06320158 -55.46903167 43.06320158 -58.41821289 42.7121582 C-58.94020264 42.477146 -59.46219238 42.24213379 -60 42 C-59.34 42 -58.68 42 -58 42 C-58 37.71 -58 33.42 -58 29 C-55.66293333 27.78066087 -53.32586173 26.5613312 -50.98876953 25.34204102 C-48.93367545 24.26976797 -46.87866405 23.19733645 -44.82373047 22.12475586 C-39.44037768 19.3151779 -34.05576488 16.50808015 -28.66796875 13.70703125 C-27.65420166 13.17948242 -26.64043457 12.65193359 -25.59594727 12.10839844 C-23.66596126 11.10415229 -21.73548718 10.10084339 -19.80444336 9.09863281 C-14.76298376 6.47384976 -9.78978357 3.77716878 -4.88818359 0.89819336 C-3 0 -3 0 0 0 Z " fill="#1AAD97" transform="translate(156,64)"/>
<path d="M0 0 C-0.020625 0.9075 -0.04125 1.815 -0.0625 2.75 C-0.01048111 5.45498249 0.29177628 7.43478023 1 10 C-1.28874173 11.33858524 -3.58069656 12.67101014 -5.875 14 C-6.52597656 14.3815625 -7.17695312 14.763125 -7.84765625 15.15625 C-12.7734375 18 -12.7734375 18 -15 18 C-15 14.37 -15 10.74 -15 7 C-12.87767021 5.82823482 -10.75242209 4.66245215 -8.625 3.5 C-7.72007813 2.99919922 -7.72007813 2.99919922 -6.796875 2.48828125 C-2.2265625 0 -2.2265625 0 0 0 Z " fill="#FEF4F4" transform="translate(122,22)"/>
</svg>
